<?xml version="1.0" encoding="UTF-8"?>
<svg id="Layer_1" data-name="Layer 1" xmlns="http://www.w3.org/2000/svg" viewBox="0 0 175.78 85.1">
  <defs>
    <style>
      .cls-1 {
        fill: #00a79d;
        fill-rule: evenodd;
      }
    </style>
  </defs>
  <path class="cls-1" d="M13.71,49.59H2.2v1.01h13.15c.04,4.02.08,8.05.13,12.07h.63v-12.07h4.68v9.72h.63c.04-3.24.08-6.48.13-9.72h3.67v29.83h.76v-29.83h6.58v26.82h.76v-26.82h3.41v20.11h.76v-20.11h5.44c.04,4.69.08,9.39.13,14.08h.63v-14.08h3.54v11.06h.76v-11.06h1.14v6.7h.76v-6.7c1.14.11,2.28.22,3.41.34v9.39h.63c.04-3.24.08-6.48.13-9.72h3.41v10.06c.25-.11.51-.22.76-.34v-9.72h2.91v7.71h.76v-7.71c1.22.11,2.44.22,3.67.34v6.03h.63c.04-2.12.08-4.25.13-6.37h8.35v2.35h.76v-2.35c1.12.15,3.86.87,4.3-1.01h-5.94v-3.69h-.76v3.69h-3.67v-5.36h-.76v5.36h-1.14c-.04-.89-.08-1.79-.13-2.68h-.63v2.68h-2.15v-5.7c-.25.11-.51.22-.76.34v5.36h-3.41v-8.38h-.76v8.38h-3.67c-.04-2.9-.08-5.81-.13-8.72h-.63v8.72h-2.66v-8.04h-.76v8.04h-5.56v-14.41h-.76v14.41h-4.43v-23.13h-.76v23.13h-4.17v-14.08h-.76v14.08h-4.43v-28.83c-.25.11-.51.22-.76.34v28.49c-.8-.11-1.6-.22-2.4-.34v-4.69c-.25.11-.51.22-.76.34v4.69h-2.91V14.73h-.76v34.86h-3.92v-29.83h-.76v29.83h-.76v-22.12h-.76v22.12h-2.66V4.67c-.25.11-.51.22-.76.34v44.58Z"/>
  <path class="cls-1" d="M100.03,27.8c-2.74,7.26-5.48,14.53-8.22,21.79h-12.39v1.01h12.65c2.7,7.26,5.4,14.53,8.09,21.79,8.98-3.13,17.96-6.26,26.94-9.39,5.1-1.79,10.2-3.58,15.3-5.36,9.79-4.81,19.33-6.68,31.11-6.7v-1.34h-11.38c-20.69-7.26-41.4-14.53-62.09-21.79Z"/>
</svg>