<?xml version="1.0" encoding="UTF-8"?>
<svg id="Layer_1" data-name="Layer 1" xmlns="http://www.w3.org/2000/svg" viewBox="0 0 175.78 85.1">
  <defs>
    <style>
      .cls-1 {
        fill: #00a79d;
        fill-rule: evenodd;
      }
    </style>
  </defs>
  <path class="cls-1" d="M141.51,7.06c-1.84.89-3.48,1.29-4.62,2.83-3.58,4.85.24,10.5,4.91,11.47v57.64c.2.1.4.2.6.3h.74c.8-.58.45-12.11.45-14.3V21.36c8.89-1.21,8.53-14.63-2.09-14.3ZM94.89,10.64c-2.59,1.52-4.37,6.18,0,7v61.36c.2.1.4.2.6.3h.74c.8-.58.45-12.79.45-15.04V17.78c3.97-1.49,3.72-7.44-1.79-7.15ZM79.25,14.66c-2.59,1.52-4.37,6.18,0,7v57.34c.2.1.4.2.6.3h.74c.8-.58.45-11.98.45-14.15V21.81c3.97-1.49,3.72-7.44-1.79-7.15ZM16.7,19.13c-2.59,1.52-4.37,6.18,0,7v52.87c.2.1.4.2.6.3h.74c.81-.58.45-11.03.45-13.11V26.27c3.97-1.49,3.72-7.44-1.79-7.15ZM157.44,20.91c-2.59,1.52-4.37,6.18,0,7v51.09c.2.1.4.2.6.3h.74c.81-.59.45-10.62.45-12.66V28.06c3.97-1.49,3.72-7.44-1.79-7.15ZM32.33,22.25c-2.59,1.52-4.37,6.18,0,7v49.75c.2.1.4.2.6.3h.74c.81-.59.45-10.35.45-12.36V29.4c3.97-1.49,3.72-7.44-1.79-7.15ZM63.61,30.3c-2.59,1.52-4.37,6.18,0,7v41.7c.2.1.4.2.6.3h.74c.81-.59.45-8.44.45-10.28v-31.58c3.97-1.49,3.72-7.44-1.79-7.15ZM110.53,33.42c-2.59,1.52-4.37,6.18,0,7v38.58c.2.1.4.2.6.3h.74c.81-.59.45-7.76.45-9.53v-29.19c3.97-1.49,3.72-7.44-1.79-7.15ZM126.17,41.47c-2.59,1.52-4.37,6.18,0,7v30.53c.2.1.4.2.6.3h.74c1.09-.78.45-5.86.45-7.6v-23.09c3.97-1.49,3.72-7.44-1.79-7.15ZM47.97,42.36c-2.59,1.52-4.37,6.18,0,7v29.64c.2.1.4.2.6.3h.74c1.07-.77.45-5.73.45-7.45v-22.34c3.97-1.49,3.72-7.44-1.79-7.15Z"/>
</svg>