<?xml version="1.0" encoding="UTF-8"?>
<svg id="Layer_1" data-name="Layer 1" xmlns="http://www.w3.org/2000/svg" viewBox="0 0 175.78 85.1">
  <defs>
    <style>
      .cls-1 {
        fill: #00a79d;
        fill-rule: evenodd;
      }
    </style>
  </defs>
  <path class="cls-1" d="M171.3,57.24v1.54H34.93c-1.31,1.37-3.23,2.46-4.78,3.67-2.74,2.1-5.48,4.2-8.22,6.29-5.59,4.29-11.18,8.59-16.77,12.89h-2.74l2.49-1.98c2.38-1.82,4.76-3.63,7.14-5.45,5.59-4.26,11.18-8.53,16.77-12.79l5.67-4.46c.1-.05,1.47-.38,2.1-.59.53-.18.54-.44,1.08-.59l-.19.2C82.08,38.56,126.7,21.16,171.3,3.77v1.73c-42.69,16.63-85.4,33.27-128.09,49.91v.05c42.69-8.18,85.4-16.36,128.09-24.53v1.59c-42.99,8.24-85.99,16.49-128.98,24.73h128.98Z"/>
</svg>